# xmcd
#
# Track frame offsets: 
#        150
#        9203
#        20669
#        29057
#        39947
#        55411
#        66639
#        77043
#        89641
#        103271
#        113153
#        121552
#        131519
#        143608
#        153126
#        163139
#        174595
#        186323
#        197665
#        211606
#        220881
#        230926
#        241385
#        251490
#        264031
#        274620
#        289449
#        304833
#        314967
#        326164
#
# Disc length: 4514 seconds
#
# Revision: 0
# Processed by: cddbd v1.5.2PL0 Copyright (c) Steve Scherf et al.
# Submitted via: ExactAudioCopy v1.3
#
DISCID=be11a01e
DTITLE=Various Artist - Mighty Instrumentals R&B-Style 1959 [CD2]
DYEAR=1959
DGENRE=R&B
TTITLE0=Memphis Slim - Steppin' Out
TTITLE1=Buster Brown - The Madison Shuffle
TTITLE2=The Carter Bros - Voodoo Cha Cha
TTITLE3=Doc Starkes - Night Ridin'
TTITLE4=Willie Dixon/Memphis Slim - Slim's Thing
TTITLE5=Ike Turner - Ho Ho
TTITLE6=Howlin' Wolf - Wolf in the Mood
TTITLE7=Gatemouth Brown - Swingin' the Gate
TTITLE8=Check Berry - Blue on Blue
TTITLE9=Elmore James - Bobby's Rock
TTITLE10=Little Bord - Harmonica Rock
TTITLE11=Bo Diddley - Diddling
TTITLE12=Gus Jenkins - Spanky
TTITLE13=Royal Earl - Talkin' Guitar (pt. 2)
TTITLE14=Cliff Davis - Let It Roll (pt. 1)
TTITLE15=Cliff Davis - Let It Roll (pt. 2)
TTITLE16=Jimmy Nolen - Blues After Hours
TTITLE17=Lefty Bates - E N A
TTITLE18=Clear Waters - A-Minor Cha Cha
TTITLE19=Jerry McCain - Steady
TTITLE20=Nick and the Jaguars - Cool and Crazy
TTITLE21=Ernie Freeman - Night Sounds
TTITLE22=Herb Hardesty - Beatin' and Blowin'
TTITLE23=Sammy Price - Honky Tonk Caboose
TTITLE24=Louis Brooks - Rollin' Home
TTITLE25=Bill Doggett - Backwards (pt. 1)
TTITLE26=Bill Doggett - Backwards (pt. 2)
TTITLE27=Harmonica George - Sputnik Music
TTITLE28=Walter J. Westbrook - Midnight Jump
TTITLE29=Paul Gayten - The Hunch
EXTD=
EXTT0=
EXTT1=
EXTT2=
EXTT3=
EXTT4=
EXTT5=
EXTT6=
EXTT7=
EXTT8=
EXTT9=
EXTT10=
EXTT11=
EXTT12=
EXTT13=
EXTT14=
EXTT15=
EXTT16=
EXTT17=
EXTT18=
EXTT19=
EXTT20=
EXTT21=
EXTT22=
EXTT23=
EXTT24=
EXTT25=
EXTT26=
EXTT27=
EXTT28=
EXTT29=
PLAYORDER=
